<?xml version="1.0" encoding="utf-8"?>
<!-- Generator: Adobe Illustrator 23.0.5, SVG Export Plug-In . SVG Version: 6.00 Build 0)  -->
<svg version="1.1" id="Слой_1" xmlns="http://www.w3.org/2000/svg" xmlns:xlink="http://www.w3.org/1999/xlink" x="0px" y="0px"
	 viewBox="0 0 2048 2048" style="enable-background:new 0 0 2048 2048;" xml:space="preserve">
<style type="text/css">
	.st0{fill:none;stroke:#FFFFFF;stroke-width:20;stroke-miterlimit:10;}
	.st1{fill:#FFFFFF;}
</style>
<circle class="st0" cx="1024" cy="1024" r="1024"/>
<g>
	<path class="st1" d="M915.3,1176.4c0-54.3,11.2-101.5,33.7-141.7c22.4-40.1,63.1-86.2,122.2-138.1c41.3-37.8,71.1-69.6,89.4-95.6
		c18.3-26,27.5-57.3,27.5-93.9c0-46-15.7-83.8-46.9-113.3c-31.3-29.5-74.1-44.3-128.4-44.3c-52,0-93.9,15.7-125.8,46.9
		s-54.9,68.8-69.1,112.4l-177.1-74.4c23.6-70.8,67-133.4,130.2-187.7c63.2-54.3,143.1-81.5,240-81.5c72,0,136.4,14.5,193,43.4
		c56.7,28.9,100.6,69.1,131.9,120.4s47,108.9,47,172.7c0,62.6-15.1,116-45.2,160.3c-30.1,44.3-70,90.1-119.5,137.3
		c-38.9,35.4-66.4,67.9-82.3,97.4c-15.9,29.5-23.9,63.2-23.9,101v51.3H915.3V1176.4z M916.2,1632.4c-26.6-26.6-39.9-58.7-39.9-96.5
		c0-37.8,13.3-69.6,39.9-95.6c26.6-26,58.7-39,96.5-39c37.8,0,69.7,13,95.6,39c26,26,39,57.9,39,95.6c0,37.8-13,70-39,96.5
		s-57.8,39.8-95.6,39.8C974.9,1672.3,942.7,1659,916.2,1632.4z"/>
</g>
</svg>
