<?xml version="1.0" encoding="utf-8"?>
<!-- Generator: Adobe Illustrator 23.0.5, SVG Export Plug-In . SVG Version: 6.00 Build 0)  -->
<!DOCTYPE svg PUBLIC "-//W3C//DTD SVG 1.1//EN" "http://www.w3.org/Graphics/SVG/1.1/DTD/svg11.dtd" [
	<!ENTITY ns_extend "http://ns.adobe.com/Extensibility/1.0/">
	<!ENTITY ns_ai "http://ns.adobe.com/AdobeIllustrator/10.0/">
	<!ENTITY ns_graphs "http://ns.adobe.com/Graphs/1.0/">
]>
<svg version="1.1" id="Слой_1"
	 xmlns="http://www.w3.org/2000/svg" x="0px" y="0px" viewBox="0 0 2048 2048"
	 style="enable-background:new 0 0 2048 2048;" xml:space="preserve">
<style type="text/css">
	.st0{fill:#E18C44;}
</style>
	<g>
		<path class="st0" d="M115.49,115.49L115.49,115.49c33.7-33.7,88.34-33.7,122.04,0l1694.98,1694.98c33.7,33.7,33.7,88.34,0,122.04
			l0,0c-33.7,33.7-88.34,33.7-122.04,0L115.49,237.53C81.79,203.83,81.79,149.19,115.49,115.49z"/>
	</g>
	<g>
		<path class="st0" d="M115.49,1932.51L115.49,1932.51c-33.7-33.7-33.7-88.34,0-122.04L1810.47,115.49
			c33.7-33.7,88.34-33.7,122.04,0l0,0c33.7,33.7,33.7,88.34,0,122.04L237.53,1932.51C203.83,1966.21,149.19,1966.21,115.49,1932.51
			z"/>
	</g>
</svg>
