<?xml version="1.0" encoding="utf-8"?>
<!-- Generator: Adobe Illustrator 23.0.5, SVG Export Plug-In . SVG Version: 6.00 Build 0)  -->
<svg version="1.1" id="Слой_1" xmlns="http://www.w3.org/2000/svg" xmlns:xlink="http://www.w3.org/1999/xlink" x="0px" y="0px"
	 viewBox="0 0 2048 2048" style="enable-background:new 0 0 2048 2048;" xml:space="preserve">
<style type="text/css">
	.st0{fill:#F7931E;}
	.st1{fill:#FFFFFF;}
</style>
<g>
	<path class="st0" d="M1704.2,680.2c0,359.8-279.3,654.3-633,678.6v640c0,27.1-22,49.1-49.1,49.1s-49.1-22-49.1-49.1v-640.3
		c-351.9-26-629.3-319.8-629.3-678.3C343.8,304.5,648.3,0,1024,0S1704.2,304.5,1704.2,680.2z"/>
</g>
<circle class="st1" cx="1024" cy="680.2" r="583.1"/>
<g>
	<circle class="st0" cx="1024" cy="453.4" r="210.1"/>
</g>
<g>
	<path class="st0" d="M1024,697L1024,697c116,0,210.1,94.1,210.1,210.1v210.1H813.9V907.1C813.9,791.1,908,697,1024,697z"/>
</g>
</svg>
