<?xml version="1.0" encoding="utf-8"?>
<!-- Generator: Adobe Illustrator 23.0.5, SVG Export Plug-In . SVG Version: 6.00 Build 0)  -->
<!DOCTYPE svg PUBLIC "-//W3C//DTD SVG 1.1//EN" "http://www.w3.org/Graphics/SVG/1.1/DTD/svg11.dtd" [
	<!ENTITY ns_extend "http://ns.adobe.com/Extensibility/1.0/">
	<!ENTITY ns_ai "http://ns.adobe.com/AdobeIllustrator/10.0/">
	<!ENTITY ns_graphs "http://ns.adobe.com/Graphs/1.0/">
]>
<svg version="1.1" id="Слой_1"
	 xmlns="http://www.w3.org/2000/svg" x="0px" y="0px" viewBox="0 0 2048 2048"
	 style="enable-background:new 0 0 2048 2048;" xml:space="preserve">
<style type="text/css">
	.st0{fill:#E18C44;}
	.st1{fill:#FFFFFF;}
</style>
		<path class="st0" d="M1725.32,2048H322.68C144.47,2048,0,1903.53,0,1725.32V322.68C0,144.47,144.47,0,322.68,0h1402.64
			C1903.53,0,2048,144.47,2048,322.68v1402.64C2048,1903.53,1903.53,2048,1725.32,2048z"/>
		<g>
			<path class="st1" d="M1533.28,765.28c0,269.37-209.13,489.89-473.87,508.05v479.18c0,20.32-16.45,36.77-36.77,36.77
				s-36.77-16.45-36.77-36.77v-479.37c-263.46-19.5-471.15-239.41-471.15-507.86C514.72,484,742.73,256,1024,256
				S1533.28,484,1533.28,765.28z"/>
		</g>
		<g>
			<path class="st0" d="M1025.36,512L1025.36,512c-20.31,0-36.77,16.46-36.77,36.77v438.47c0,20.31,16.46,36.77,36.77,36.77l0,0
				c20.31,0,36.77-16.46,36.77-36.77V548.77C1062.13,528.46,1045.67,512,1025.36,512z"/>
		</g>
		<g>
			<path class="st0" d="M1172.43,512L1172.43,512c-20.31,0-36.77,16.46-36.77,36.77v438.47c0,20.31,16.46,36.77,36.77,36.77l0,0
				c20.31,0,36.77-16.46,36.77-36.77V548.77C1209.19,528.46,1192.73,512,1172.43,512z"/>
		</g>
		<g>
			<path class="st0" d="M878.3,512L878.3,512c-20.31,0-36.77,16.46-36.77,36.77v438.47c0,20.31,16.46,36.77,36.77,36.77h0
				c20.31,0,36.77-16.46,36.77-36.77V548.77C915.06,528.46,898.6,512,878.3,512z"/>
		</g>
		<g>
			<path class="st0" d="M1209.19,987.23L1209.19,987.23c0,20.31-16.46,36.77-36.77,36.77H878.3c-20.31,0-36.77-16.46-36.77-36.77v0
				c0-20.31,16.46-36.77,36.77-36.77h294.13C1192.73,950.47,1209.19,966.93,1209.19,987.23z"/>
		</g>
</svg>
