<?xml version="1.0" encoding="utf-8"?>
<!-- Generator: Adobe Illustrator 23.0.5, SVG Export Plug-In . SVG Version: 6.00 Build 0)  -->
<!DOCTYPE svg PUBLIC "-//W3C//DTD SVG 1.1//EN" "http://www.w3.org/Graphics/SVG/1.1/DTD/svg11.dtd" [
	<!ENTITY ns_extend "http://ns.adobe.com/Extensibility/1.0/">
	<!ENTITY ns_ai "http://ns.adobe.com/AdobeIllustrator/10.0/">
	<!ENTITY ns_graphs "http://ns.adobe.com/Graphs/1.0/">
]>
<svg version="1.1" id="Слой_1"
	 xmlns="http://www.w3.org/2000/svg" x="0px" y="0px" viewBox="0 0 2048 2048"
	 style="enable-background:new 0 0 2048 2048;" xml:space="preserve">
	<style type="text/css">
		.st0{fill:#F7931E;}
	</style>
	<g>
		<path class="st0" d="M113.42,1511.99L113.42,1511.99c0-33.82,27.42-61.23,61.23-61.23h1700.96c33.82,0,61.23,27.42,61.23,61.23v0
			c0,33.82-27.42,61.23-61.23,61.23H174.65C140.84,1573.22,113.42,1545.81,113.42,1511.99z"/>
	</g>
	<g>
		<path class="st0" d="M111.15,1025.13L111.15,1025.13c0-33.82,27.42-61.23,61.23-61.23h1700.96c33.82,0,61.23,27.42,61.23,61.23v0
			c0,33.82-27.42,61.23-61.23,61.23H172.39C138.57,1086.37,111.15,1058.95,111.15,1025.13z"/>
	</g>
	<g>
		<path class="st0" d="M111.15,536.01L111.15,536.01c0-33.82,27.42-61.23,61.23-61.23h1700.96c33.82,0,61.23,27.42,61.23,61.23v0
			c0,33.82-27.42,61.23-61.23,61.23H172.39C138.57,597.25,111.15,569.83,111.15,536.01z"/>
	</g>
</svg>
