<?xml version="1.0" encoding="utf-8"?>
<!-- Generator: Adobe Illustrator 23.0.5, SVG Export Plug-In . SVG Version: 6.00 Build 0)  -->
<svg version="1.1" id="Слой_1" xmlns="http://www.w3.org/2000/svg" xmlns:xlink="http://www.w3.org/1999/xlink" x="0px" y="0px"
	 viewBox="0 0 2048 2048" style="enable-background:new 0 0 2048 2048;" xml:space="preserve">
<style type="text/css">
	.st0{fill:#F7931E;stroke:#FFFFFF;stroke-width:40;stroke-miterlimit:10;}
	.st1{fill:#FFFFFF;}
</style>
<circle class="st0" cx="1024" cy="1024" r="1024"/>
<g>
	<g>
		<path class="st1" d="M634.7,473.1h413.9c58.5,0,112.6,12.8,162.3,38.5c49.7,25.6,89.4,61.1,119.2,106.2
			c29.9,45.1,44.6,95,44.6,149.3c0,54.4-13.7,101.5-40.7,141.5c-27.2,40-62.9,70.2-106.9,90.8v9.3c55.3,19.5,100.3,51.8,134.7,96.9
			c34.2,45.1,51.6,98,51.6,158.6s-15.6,114.3-46.9,161.6c-31.4,47.2-73.4,83.9-126.3,110.1s-110.5,39.2-173.2,39.2H634.7V473.1z
			 M1040.9,934.8c49.2,0,89-15.5,119.2-46.2s45.5-66.2,45.5-106.2s-14.6-75.2-43.9-105.4s-67.4-45.5-114.7-45.5H806.9v303.3
			L1040.9,934.8L1040.9,934.8z M1067,1414.9c52.3,0,94.1-16.5,125.4-49.2s47.1-70.8,47.1-114c0-44.1-16.2-82.4-48.5-114.7
			c-32.3-32.3-75.7-48.5-130.1-48.5h-254v326.3L1067,1414.9L1067,1414.9z"/>
	</g>
</g>
</svg>
