<?xml version="1.0" encoding="utf-8"?>
<!-- Generator: Adobe Illustrator 23.0.5, SVG Export Plug-In . SVG Version: 6.00 Build 0)  -->
<!DOCTYPE svg PUBLIC "-//W3C//DTD SVG 1.1//EN" "http://www.w3.org/Graphics/SVG/1.1/DTD/svg11.dtd" [
	<!ENTITY ns_extend "http://ns.adobe.com/Extensibility/1.0/">
	<!ENTITY ns_ai "http://ns.adobe.com/AdobeIllustrator/10.0/">
	<!ENTITY ns_graphs "http://ns.adobe.com/Graphs/1.0/">
]>
<svg version="1.1" id="Слой_1"
	 xmlns="http://www.w3.org/2000/svg" x="0px" y="0px" viewBox="0 0 1920 1080"
	 style="enable-background:new 0 0 1920 1080;" xml:space="preserve">
	<style type="text/css">
		.st0{fill:#FFF;}
	</style>
    <g>
        <path class="st0" d="M1230.91,287.09c-106.56-106.56-279.31-106.56-385.86,0c-101.7,101.7-106.33,263.69-13.91,370.88
            L650.57,838.54c-7.7,7.7-7.7,20.16,0,27.86c7.7,7.7,20.16,7.7,27.86,0l180.5-180.5c107.18,93.41,269.94,89.1,371.99-12.95
            C1337.47,566.39,1337.47,393.64,1230.91,287.09z M891,653.82c-4.79-4.04-9.45-8.34-13.97-12.86c-4.87-4.87-9.47-9.9-13.8-15.08
            c-74.82-89.43-70.22-222.79,13.8-306.81c88.89-88.89,233-88.89,321.9,0s88.89,233,0,321.9
            C1114.56,725.34,980.43,729.63,891,653.82z"/>
    </g>
</svg>
