<?xml version="1.0" encoding="utf-8"?>
<!-- Generator: Adobe Illustrator 23.0.5, SVG Export Plug-In . SVG Version: 6.00 Build 0)  -->
<!DOCTYPE svg PUBLIC "-//W3C//DTD SVG 1.1//EN" "http://www.w3.org/Graphics/SVG/1.1/DTD/svg11.dtd" [
	<!ENTITY ns_extend "http://ns.adobe.com/Extensibility/1.0/">
	<!ENTITY ns_ai "http://ns.adobe.com/AdobeIllustrator/10.0/">
	<!ENTITY ns_graphs "http://ns.adobe.com/Graphs/1.0/">
]>
<svg version="1.1" id="Слой_1"
	 xmlns="http://www.w3.org/2000/svg" x="0px" y="0px" viewBox="0 0 2048 2048"
	 style="enable-background:new 0 0 2048 2048;" xml:space="preserve">
<style type="text/css">
	.st0{fill:#FFF;}
</style>
	<g>
		<g>
			<path class="st0" d="M1023.04,618.23c-224.09,0-405.77,181.68-405.77,405.77s181.68,405.77,405.77,405.77
				s405.77-181.68,405.77-405.77S1247.14,618.23,1023.04,618.23z M1023.04,1280.48c-141.66,0-256.48-114.82-256.48-256.48
				s114.82-256.48,256.48-256.48s256.48,114.82,256.48,256.48S1164.7,1280.48,1023.04,1280.48z"/>
		</g>
		<g>
			<path class="st0" d="M1979.23,955.23h-234.01c-13.99-148.41-72.81-283.79-162.79-392.41l165.64-165.64
				c13.44-13.42,20.14-31.03,20.14-48.64c0-17.59-6.7-35.18-20.14-48.62c-26.85-26.85-70.4-26.85-97.25,0l-165.73,165.73
				c-108.68-89.69-244-148.24-392.32-162V68.77c0-18.99-7.69-36.17-20.14-48.64C1060.19,7.69,1042.99,0,1024,0
				c-37.99,0-68.77,30.8-68.77,68.77v235.06c-148.05,14.14-283.06,72.92-391.46,162.69l-166.6-166.6
				c-26.85-26.85-70.4-26.85-97.25,0c-26.85,26.85-26.85,70.4,0,97.25l166.69,166.69c-89.48,108.45-147.99,243.42-161.93,391.36
				H68.77C30.8,955.23,0,986.01,0,1024c0,37.99,30.8,68.77,68.77,68.77h235.92c13.93,147.93,72.45,282.91,161.93,391.36
				l-166.69,166.69c-26.85,26.85-26.85,70.4,0,97.25c26.85,26.85,70.4,26.85,97.25,0l166.6-166.6
				c108.39,89.77,243.41,148.55,391.46,162.69v235.06c0,37.97,30.78,68.77,68.77,68.77c37.99,0,68.77-30.8,68.77-68.77v-234.89
				c148.32-13.76,283.64-72.31,392.32-162l165.73,165.73c13.42,13.44,31.03,20.14,48.64,20.14c17.59,0,35.18-6.7,48.62-20.14
				c26.85-26.85,26.85-70.4,0-97.25l-165.64-165.64c89.98-108.62,148.8-244,162.79-392.41h234.01c18.99,0,36.17-7.69,48.64-20.14
				c12.44-12.44,20.14-29.65,20.14-48.64C2048,986.01,2017.2,955.23,1979.23,955.23z M1023.04,1598.21
				c-317.13,0-574.21-257.07-574.21-574.21s257.07-574.21,574.21-574.21s574.21,257.07,574.21,574.21
				S1340.18,1598.21,1023.04,1598.21z"/>
		</g>
		<g>
			<path class="st0" d="M1023.04,618.23c-224.09,0-405.77,181.68-405.77,405.77s181.68,405.77,405.77,405.77
				s405.77-181.68,405.77-405.77S1247.14,618.23,1023.04,618.23z M1023.04,1280.48c-141.66,0-256.48-114.82-256.48-256.48
				s114.82-256.48,256.48-256.48s256.48,114.82,256.48,256.48S1164.7,1280.48,1023.04,1280.48z"/>
		</g>
		<g>
			<path class="st0" d="M1023.04,618.23c-224.09,0-405.77,181.68-405.77,405.77s181.68,405.77,405.77,405.77
				s405.77-181.68,405.77-405.77S1247.14,618.23,1023.04,618.23z M1023.04,1280.48c-141.66,0-256.48-114.82-256.48-256.48
				s114.82-256.48,256.48-256.48s256.48,114.82,256.48,256.48S1164.7,1280.48,1023.04,1280.48z"/>
		</g>
	</g>
</svg>
