<?xml version="1.0" encoding="utf-8"?>
<!-- Generator: Adobe Illustrator 23.0.5, SVG Export Plug-In . SVG Version: 6.00 Build 0)  -->
<!DOCTYPE svg PUBLIC "-//W3C//DTD SVG 1.1//EN" "http://www.w3.org/Graphics/SVG/1.1/DTD/svg11.dtd" [
	<!ENTITY ns_extend "http://ns.adobe.com/Extensibility/1.0/">
	<!ENTITY ns_ai "http://ns.adobe.com/AdobeIllustrator/10.0/">
	<!ENTITY ns_graphs "http://ns.adobe.com/Graphs/1.0/">
]>
<svg version="1.1" id="Слой_1"
	 xmlns="http://www.w3.org/2000/svg" xmlns:xlink="http://www.w3.org/1999/xlink" x="0px" y="0px" viewBox="0 0 2048 2048"
	 style="enable-background:new 0 0 2048 2048;" xml:space="preserve">
<style type="text/css">
	.st0{fill:#E18C44;}
	.st1{fill:#FFFFFF;}
</style>
	<g>
		<path class="st0" d="M1022.43,1908.74L1022.43,1908.74c-23.48,0-42.51-19.03-42.51-42.51V685.53c0-23.47,19.03-42.51,42.51-42.51
			h0c23.47,0,42.51,19.03,42.51,42.51v1180.7C1064.93,1889.71,1045.9,1908.74,1022.43,1908.74z"/>
	</g>
	<g>
		<circle class="st0" cx="1024" cy="728.04" r="588.78"/>
	</g>
	<g>
		<path class="st1" d="M1022.43,977.34L1022.43,977.34c-23.48,0-42.51-19.03-42.51-42.51V278.7c0-23.47,19.03-42.51,42.51-42.51h0
			c23.47,0,42.51,19.03,42.51,42.51v656.14C1064.93,958.31,1045.9,977.34,1022.43,977.34z"/>
	</g>
	<g>
		<path class="st1" d="M1024,1147.36L1024,1147.36c-23.47,0-42.51-19.03-42.51-42.51l0,0c0-23.47,19.03-42.51,42.51-42.51h0
			c23.47,0,42.51,19.03,42.51,42.51l0,0C1066.51,1128.33,1047.47,1147.36,1024,1147.36z"/>
	</g>
</svg>
